<?xml version="1.0" encoding="UTF-8"?>
<!DOCTYPE svg PUBLIC "-//W3C//DTD SVG 1.1//EN" "http://www.w3.org/Graphics/SVG/1.1/DTD/svg11.dtd">
<!-- Creator: CorelDRAW X8 -->
<svg xmlns="http://www.w3.org/2000/svg" xml:space="preserve" width="53.821" height="38.125" version="1.1" style="shape-rendering:geometricPrecision; text-rendering:geometricPrecision; image-rendering:optimizeQuality; fill-rule:evenodd; clip-rule:evenodd"
viewBox="0 0 5382 3812"
 xmlns:xlink="http://www.w3.org/1999/xlink">
 <defs>
  <style type="text/css">
   <![CDATA[
    .fil0 {fill:#201E1E;fill-rule:nonzero}
   ]]>
  </style>
 </defs>
 <g id="Camada_x0020_1">
  <metadata id="CorelCorpID_0Corel-Layer"/>
  <path class="fil0" d="M557 0l4268 0c154,0 293,63 394,163 101,101 163,240 163,394l0 2699c0,153 -62,292 -163,393 -101,101 -240,164 -394,164l-4268 0c-154,0 -293,-63 -394,-164 -100,-101 -163,-240 -163,-393l0 -2699c0,-154 63,-293 163,-394 101,-100 240,-163 394,-163zm4268 201l-4268 0c-98,0 -187,40 -252,104 -64,65 -104,154 -104,252l0 2699c0,98 40,187 104,251 65,65 154,105 252,105l4268 0c98,0 187,-40 252,-105 64,-64 104,-153 104,-251l0 -2699c0,-98 -40,-187 -104,-252 -65,-64 -154,-104 -252,-104zm-4027 785l3786 0c67,0 122,55 122,122l0 0c0,67 -55,122 -122,122l-3786 0c-67,0 -122,-55 -122,-122l0 0c0,-67 55,-122 122,-122zm0 798l3786 0c67,0 122,55 122,122l0 0c0,67 -55,122 -122,122l-3786 0c-67,0 -122,-55 -122,-122l0 0c0,-67 55,-122 122,-122zm0 798l3786 0c67,0 122,55 122,123l0 0c0,67 -55,122 -122,122l-3786 0c-67,0 -122,-55 -122,-122l0 0c0,-68 55,-123 122,-123z"/>
 </g>
</svg>
